<svg width="297" height="166" viewBox="0 0 297 166" fill="none" xmlns="http://www.w3.org/2000/svg">
<path d="M12.1016 0V30H0.101562V0H12.1016ZM24.0938 0V30H12.0938V0H24.0938ZM32.4859 10.6V30H30.8859V12.2H23.9859V10.6H32.4859ZM29.2859 13.8V30H27.6859V15.4H23.9859V13.8H29.2859ZM72.0625 0V30H60.0625V0H72.0625ZM84.0547 0V30H72.0547V0H84.0547ZM92.4469 10.6V30H90.8469V12.2H83.9469V10.6H92.4469ZM89.2469 13.8V30H87.6469V15.4H83.9469V13.8H89.2469ZM120.031 0V30H108.031V0H120.031ZM132.023 0V30H120.023V0H132.023ZM144.016 0V30H132.016V0H144.016ZM156.008 0V30H144.008V0H156.008ZM168 0V30H156V0H168ZM179.992 0V30H167.992V0H179.992ZM188.384 10.6V30H186.784V12.2H179.884V10.6H188.384ZM185.184 13.8V30H183.584V15.4H179.884V13.8H185.184ZM215.969 0V30H203.969V0H215.969ZM227.961 0V30H215.961V0H227.961ZM236.353 10.6V30H234.753V12.2H227.853V10.6H236.353ZM233.153 13.8V30H231.553V15.4H227.853V13.8H233.153ZM275.93 0V30H263.93V0H275.93ZM287.922 0V30H275.922V0H287.922ZM296.314 10.6V30H294.714V12.2H287.814V10.6H296.314ZM293.114 13.8V30H291.514V15.4H287.814V13.8H293.114ZM12.1016 30V60H0.101562V30H12.1016ZM24.0938 30V60H12.0938V30H24.0938ZM32.4859 30V60H30.8859V30H32.4859ZM29.2859 30V60H27.6859V30H29.2859ZM72.0625 30V60H60.0625V30H72.0625ZM84.0547 30V60H72.0547V30H84.0547ZM92.4469 30V60H90.8469V30H92.4469ZM89.2469 30V60H87.6469V30H89.2469ZM108.039 30V60H96.0391V30H108.039ZM120.031 30V60H108.031V30H120.031ZM132.123 40.6V42.2H125.223V60H123.623V40.6H132.123ZM132.123 43.8V45.4H128.423V60H126.823V43.8H132.123ZM144.116 40.6V42.2H131.916V40.6H144.116ZM144.116 43.8V45.4H131.916V43.8H144.116ZM156.008 30V60H144.008V30H156.008ZM168 30V60H156V30H168ZM179.992 30V60H167.992V30H179.992ZM191.984 30V60H179.984V30H191.984ZM200.377 40.6V60H198.777V42.2H191.877V40.6H200.377ZM197.177 43.8V60H195.577V45.4H191.877V43.8H197.177ZM215.969 30V60H203.969V30H215.969ZM227.961 30V60H215.961V30H227.961ZM236.353 30V60H234.753V30H236.353ZM233.153 30V60H231.553V30H233.153ZM275.93 30V60H263.93V30H275.93ZM287.922 30V60H275.922V30H287.922ZM296.314 30V60H294.714V30H296.314ZM293.114 30V60H291.514V30H293.114ZM12.1016 60V90H0.101562V60H12.1016ZM24.0938 60V90H12.0938V60H24.0938ZM36.0859 60V90H24.0859V60H36.0859ZM48.0781 60V90H36.0781V60H48.0781ZM60.0703 60V90H48.0703V60H60.0703ZM72.0625 60V90H60.0625V60H72.0625ZM84.0547 60V90H72.0547V60H84.0547ZM92.4469 60V90H90.8469V60H92.4469ZM89.2469 60V90H87.6469V60H89.2469ZM108.039 60V90H96.0391V60H108.039ZM120.031 60V90H108.031V60H120.031ZM128.423 60V90H126.823V60H128.423ZM125.223 60V90H123.623V60H125.223ZM144.016 60V90H132.016V60H144.016ZM156.008 60V90H144.008V60H156.008ZM168.1 70.6V72.2H161.2V90H159.6V70.6H168.1ZM168.1 73.8V75.4H164.4V90H162.8V73.8H168.1ZM179.992 60V90H167.992V60H179.992ZM191.984 60V90H179.984V60H191.984ZM200.377 60V90H198.777V60H200.377ZM197.177 60V90H195.577V60H197.177ZM215.969 60V90H203.969V60H215.969ZM227.961 60V90H215.961V60H227.961ZM239.953 60V90H227.953V60H239.953ZM251.945 60V90H239.945V60H251.945ZM263.938 60V90H251.938V60H263.938ZM275.93 60V90H263.93V60H275.93ZM287.922 60V90H275.922V60H287.922ZM296.314 60V90H294.714V60H296.314ZM293.114 60V90H291.514V60H293.114ZM5.30156 90V103.8H12.2016V105.4H3.70156V90H5.30156ZM8.50156 90V100.6H12.2016V102.2H6.90156V90H8.50156ZM24.1938 100.6V102.2H11.9937V100.6H24.1938ZM24.1938 103.8V105.4H11.9937V103.8H24.1938ZM36.1859 100.6V102.2H23.9859V100.6H36.1859ZM36.1859 103.8V105.4H23.9859V103.8H36.1859ZM48.1781 100.6V102.2H35.9781V100.6H48.1781ZM48.1781 103.8V105.4H35.9781V103.8H48.1781ZM60.1703 100.6V102.2H47.9703V100.6H60.1703ZM60.1703 103.8V105.4H47.9703V103.8H60.1703ZM72.0625 90V120H60.0625V90H72.0625ZM84.0547 90V120H72.0547V90H84.0547ZM92.4469 90V120H90.8469V90H92.4469ZM89.2469 90V120H87.6469V90H89.2469ZM108.039 90V120H96.0391V90H108.039ZM120.031 90V120H108.031V90H120.031ZM132.023 90V120H120.023V90H132.023ZM144.016 90V120H132.016V90H144.016ZM156.108 100.6V102.2H149.208V120H147.608V100.6H156.108ZM156.108 103.8V105.4H152.408V120H150.808V103.8H156.108ZM164.4 90V105.4H155.9V103.8H162.8V90H164.4ZM161.2 90V102.2H155.9V100.6H159.6V90H161.2ZM179.992 90V120H167.992V90H179.992ZM191.984 90V120H179.984V90H191.984ZM200.377 90V120H198.777V90H200.377ZM197.177 90V120H195.577V90H197.177ZM209.169 90V103.8H216.069V105.4H207.569V90H209.169ZM212.369 90V100.6H216.069V102.2H210.769V90H212.369ZM228.061 100.6V102.2H215.861V100.6H228.061ZM228.061 103.8V105.4H215.861V103.8H228.061ZM240.053 100.6V102.2H227.853V100.6H240.053ZM240.053 103.8V105.4H227.853V103.8H240.053ZM252.045 100.6V102.2H239.845V100.6H252.045ZM252.045 103.8V105.4H239.845V103.8H252.045ZM264.038 100.6V102.2H251.837V100.6H264.038ZM264.038 103.8V105.4H251.837V103.8H264.038ZM275.93 90V120H263.93V90H275.93ZM287.922 90V120H275.922V90H287.922ZM296.314 90V120H294.714V90H296.314ZM293.114 90V120H291.514V90H293.114ZM72.0625 120V150H60.0625V120H72.0625ZM84.0547 120V150H72.0547V120H84.0547ZM92.4469 120V150H90.8469V120H92.4469ZM89.2469 120V150H87.6469V120H89.2469ZM101.239 120V133.8H108.139V135.4H99.6391V120H101.239ZM104.439 120V130.6H108.139V132.2H102.839V120H104.439ZM120.031 120V150H108.031V120H120.031ZM132.023 120V150H120.023V120H132.023ZM144.016 120V150H132.016V120H144.016ZM156.008 120V150H144.008V120H156.008ZM168 120V150H156V120H168ZM179.992 120V150H167.992V120H179.992ZM192.084 130.6V132.2H185.184V150H183.584V130.6H192.084ZM192.084 133.8V135.4H188.384V150H186.784V133.8H192.084ZM200.377 120V135.4H191.877V133.8H198.777V120H200.377ZM197.177 120V132.2H191.877V130.6H195.577V120H197.177ZM275.93 120V150H263.93V120H275.93ZM287.922 120V150H275.922V120H287.922ZM296.314 120V150H294.714V120H296.314ZM293.114 120V150H291.514V120H293.114ZM65.2625 150V163.8H72.1625V165.4H63.6625V150H65.2625ZM68.4625 150V160.6H72.1625V162.2H66.8625V150H68.4625ZM84.1547 160.6V162.2H71.9547V160.6H84.1547ZM84.1547 163.8V165.4H71.9547V163.8H84.1547ZM92.4469 150V165.4H83.9469V163.8H90.8469V150H92.4469ZM89.2469 150V162.2H83.9469V160.6H87.6469V150H89.2469ZM113.231 150V163.8H120.131V165.4H111.631V150H113.231ZM116.431 150V160.6H120.131V162.2H114.831V150H116.431ZM132.123 160.6V162.2H119.923V160.6H132.123ZM132.123 163.8V165.4H119.923V163.8H132.123ZM144.116 160.6V162.2H131.916V160.6H144.116ZM144.116 163.8V165.4H131.916V163.8H144.116ZM156.108 160.6V162.2H143.908V160.6H156.108ZM156.108 163.8V165.4H143.908V163.8H156.108ZM168.1 160.6V162.2H155.9V160.6H168.1ZM168.1 163.8V165.4H155.9V163.8H168.1ZM180.092 160.6V162.2H167.892V160.6H180.092ZM180.092 163.8V165.4H167.892V163.8H180.092ZM188.384 150V165.4H179.884V163.8H186.784V150H188.384ZM185.184 150V162.2H179.884V160.6H183.584V150H185.184ZM269.13 150V163.8H276.03V165.4H267.53V150H269.13ZM272.33 150V160.6H276.03V162.2H270.73V150H272.33ZM288.022 160.6V162.2H275.822V160.6H288.022ZM288.022 163.8V165.4H275.822V163.8H288.022ZM296.314 150V165.4H287.814V163.8H294.714V150H296.314ZM293.114 150V162.2H287.814V160.6H291.514V150H293.114Z" fill="#90A1B9"/>
</svg>
